HIERARCHY
ROOT root     
{
	OFFSET 0.0000 0.0000 0.0000
	CHANNELS 6 Xposition Yposition Zposition Zrotation Yrotation Xrotation
	JOINT pelvis   
	{
		OFFSET 0.0000 0.0000 0.0000
		CHANNELS 3 Zrotation Yrotation Xrotation
		JOINT thorax   
		{
			OFFSET 0.0000 23.0750 -5.0000
			CHANNELS 3 Zrotation Yrotation Xrotation
			JOINT rclavicle
			{
				OFFSET 0.0000 28.0009 0.0000
				CHANNELS 3 Zrotation Yrotation Xrotation
				JOINT rhumerus 
				{
					OFFSET -18.5725 5.5939 0.0000
					CHANNELS 3 Zrotation Yrotation Xrotation
					JOINT rradius  
					{
						OFFSET -24.8459 0.0000 0.0000
						CHANNELS 3 Zrotation Yrotation Xrotation
						JOINT rhand    
						{
							OFFSET -24.5477 0.0000 0.0000
							CHANNELS 3 Zrotation Yrotation Xrotation
							End Site
							{
								OFFSET -8.1826 0.0000 0.0000
							}
						}
					}
				}
			}
			JOINT lclavicle
			{
				OFFSET 0.0000 28.0009 0.0000
				CHANNELS 3 Zrotation Yrotation Xrotation
				JOINT lhumerus 
				{
					OFFSET 18.5725 5.5939 0.0000
					CHANNELS 3 Zrotation Yrotation Xrotation
					JOINT lradius  
					{
						OFFSET 24.8459 0.0000 0.0000
						CHANNELS 3 Zrotation Yrotation Xrotation
						JOINT lhand    
						{
							OFFSET 24.5477 0.0000 0.0000
							CHANNELS 3 Zrotation Yrotation Xrotation
							End Site
							{
								OFFSET 8.1826 0.0000 0.0000
							}
						}
					}
				}
			}
			JOINT head     
			{
				OFFSET 0.0000 35.2030 0.0000
				CHANNELS 3 Zrotation Yrotation Xrotation
				End Site
				{
					OFFSET 0.0000 11.7343 0.0000
				}
			}
		}
		JOINT rfemur   
		{
			OFFSET -8.2817 0.0000 0.0000
			CHANNELS 3 Zrotation Yrotation Xrotation
			JOINT rtibia   
			{
				OFFSET 0.0000 -43.3627 0.0000
				CHANNELS 3 Zrotation Yrotation Xrotation
				JOINT rfoot    
				{
					OFFSET 0.0000 -38.2947 0.0000
					CHANNELS 3 Zrotation Yrotation Xrotation
					JOINT rtoes    
					{
						OFFSET 0.0000 0.0000 16.6054
						CHANNELS 3 Zrotation Yrotation Xrotation
						End Site
						{
							OFFSET 0.0000 0.0000 5.5351
						}
					}
				}
			}
		}
		JOINT lfemur   
		{
			OFFSET 8.2817 0.0000 0.0000
			CHANNELS 3 Zrotation Yrotation Xrotation
			JOINT ltibia   
			{
				OFFSET 0.0000 -43.3627 0.0000
				CHANNELS 3 Zrotation Yrotation Xrotation
				JOINT lfoot    
				{
					OFFSET 0.0000 -38.2947 0.0000
					CHANNELS 3 Zrotation Yrotation Xrotation
					JOINT ltoes    
					{
						OFFSET 0.0000 0.0000 16.6054
						CHANNELS 3 Zrotation Yrotation Xrotation
						End Site
						{
							OFFSET 0.0000 0.0000 5.5351
						}
					}
				}
			}
		}
	}
}
MOTION
Frames: 13
Frame Time: .0333333
80.396 71.936 17.221 82.612 -87.4343 -56.1681 0 -0 0 0.441221 -13.4442 15.0728 22.3213 -15.124 -6.8666e-05 56.479 -18.3031 4.83172 -0 70.4153 -0 -5.71996 3.67959 -0.183899 -13.896 15.3881 3.29363e-05 -44.9819 -4.46708 1.65948 180 -81.5151 -180 -3.95897 6.51036 -0.225304 4.05184 3.70084 -17.9985 9.26325 -8.69195 -77.6266 -0 -0 43.851 1.29586e-05 -10.2806 6.83579 -1.23675 1.51112e-05 -35.1373 -3.98594 15.5391 -25.2114 -0 -0 64.521 9.32418e-06 5.67023 -17.6874 -1.72785 3.89588e-05 -74.7481 
79.198 71.909 17.168 91.0486 -87.5266 -64.4548 0 -0 0 1.29756 -13.2903 14.9744 22.2621 -14.8668 2.99249e-06 56.5222 -17.8533 4.25858 -1.04411e-06 70.493 -7.37817e-07 -5.93391 3.61809 -0.187601 -14.6122 15.7688 -6.83176e-05 -45.3666 -3.37303 1.95662 180 -81.8103 -180 -4.26217 6.33248 -0.235899 3.3679 3.79778 -18.842 9.41692 -8.64913 -78.0375 -0 -0 45.6014 -9.40999e-07 -9.46909 7.33618 -1.22009 1.01226e-05 -35.2205 -3.76173 15.4716 -24.162 -0 -0 63.7245 1.20691e-05 5.70088 -16.7127 -1.64445 -2.70545e-05 -75.8844 
77.985 71.886 17.102 99.0725 -87.592 -72.3786 0 -0 0 2.16668 -13.15 14.938 22.214 -14.5924 0.000101542 56.5343 -17.3715 3.71794 -0 70.5586 -0 -6.15941 3.54756 -0.190897 -15.2634 16.0805 7.64917e-05 -45.8677 -2.26561 2.25683 180 -82.3043 -180 -4.50095 6.15166 -0.242002 2.7098 3.87775 -19.603 9.61303 -8.6441 -78.3087 -0 -0 47.2785 1.26418e-06 -8.63445 7.53057 -1.14009 7.53669e-06 -34.5051 -3.4916 15.41 -23.0549 -0 -0 62.8964 1.71007e-05 5.69798 -15.6974 -1.54643 -3.73848e-05 -76.9369 
76.76 71.867 17.026 106.212 -87.6452 -79.4669 0 -0 0 3.03543 -13.027 14.949 22.1783 -14.3103 0.00015277 56.5197 -16.8642 3.21262 -0 70.6109 -0 -6.384 3.46841 -0.193504 -15.8301 16.3252 3.43386e-05 -46.4946 -1.16212 2.57511 180 -82.9915 -180 -4.66766 5.97989 -0.243904 2.09439 3.93066 -20.256 9.8405 -8.69077 -78.4436 -0 -0 48.8866 -1.91984e-06 -7.80088 7.39716 -1.01051 5.66884e-07 -32.9159 -3.18566 15.3365 -21.8953 -0 -0 62.0355 -2.66349e-05 5.65766 -14.6601 -1.43621 2.66013e-06 -77.8879 
75.41 71.824 17.01 129.894 -87.0899 -103.514 0 -0 0 3.13505 -12.0442 15.5175 22.2716 -14.0277 0.000165554 56.5259 -16.3001 2.72881 -1.05296e-06 70.641 -1.48601e-06 -6.59932 3.38427 -0.195198 -16.1267 16.482 -7.71922e-05 -47.2852 -0.108015 2.90454 180 -83.9109 -180 -4.75623 5.83023 -0.242296 1.68148 3.94306 -20.821 9.50702 -8.09387 -78.0078 -0 -0 50.5125 1.01601e-06 -6.90962 6.96461 -0.841898 3.2882e-06 -30.4708 -3.27569 16.1405 -19.9556 -0 -0 60.7421 3.96777e-06 5.56146 -13.6134 -1.31291 -5.52079e-06 -78.7011 
74.169 71.807 16.919 133.355 -87.0211 -107.013 0 -0 0 3.96191 -11.9535 15.5891 22.2583 -13.7709 7.95222e-05 56.4611 -15.7502 2.30924 -1.05439e-06 70.6641 -1.48742e-06 -6.79762 3.29718 -0.195899 -16.4892 16.5819 -2.03308e-05 -48.147 0.941105 3.28491 180 -85.0525 -180 -4.76365 5.71145 -0.237798 1.18677 3.91788 -21.1952 9.74409 -8.26123 -77.9143 -0 -0 52.0192 7.56785e-06 -6.1386 6.17223 -0.662494 1.75715e-06 -27.0174 -2.94355 15.9905 -18.7166 -0 -0 59.8384 2.53727e-05 5.46626 -12.5526 -1.19152 2.04947e-06 -79.4408 
72.928 71.79 16.821 135.651 -86.9875 -109.366 0 -0 0 4.76581 -11.8671 15.6546 22.2542 -13.5391 0.000189484 56.3774 -15.1851 1.93368 -7.46019e-07 70.6739 -1.05221e-06 -6.9729 3.2114 -0.1957 -16.7475 16.619 6.48947e-05 -49.0991 1.93557 3.70538 180 -86.4104 -180 -4.68858 5.63296 -0.2308 0.757377 3.84854 -21.4146 9.96689 -8.47687 -77.7429 -0 -0 53.4738 -8.74845e-08 -5.43446 5.10442 -0.484997 1.61501e-06 -22.7948 -2.61614 15.7872 -17.4891 -0 -0 58.9523 -5.71191e-06 5.361 -11.4841 -1.07031 -4.50104e-06 -80.0785 
71.695 71.776 16.718 136.944 -86.9724 -110.724 0 -0 0 5.54123 -11.7763 15.6987 22.2591 -13.3404 6.73058e-06 56.2729 -14.6049 1.60359 -1.0524e-06 70.6783 -7.46205e-07 -7.12383 3.13266 -0.195094 -16.9133 16.5944 -0.000125149 -50.1168 2.86279 4.16528 180 -88.0002 -180 -4.53298 5.60014 -0.221799 0.390803 3.73461 -21.4764 10.1609 -8.72922 -77.518 -0 -0 54.878 1.96095e-06 -4.81199 3.82001 -0.321299 1.79029e-06 -18.031 -2.30962 15.5219 -16.3028 -0 -0 58.1081 8.48815e-07 5.26903 -10.3892 -0.952797 -3.68332e-06 -80.6198 
70.477 71.765 16.612 137.392 -86.9705 -111.233 0 -0 0 6.28834 -11.6715 15.7112 22.2702 -13.1738 9.25377e-05 56.1536 -14.0123 1.3162 -1.0553e-06 70.6783 -1.48832e-06 -7.25121 3.06642 -0.194302 -16.9992 16.518 -6.27908e-05 -51.1668 3.71066 4.66342 180 -89.7579 -180 -4.30186 5.61421 -0.210998 0.0789841 3.57886 -21.3896 10.3145 -8.99722 -77.2666 -0 -0 56.2264 -1.17072e-06 -4.28594 2.40153 -0.179894 9.22405e-07 -13.1252 -2.03647 15.195 -15.2016 -0 -0 57.3414 -5.17936e-06 5.21584 -9.24318 -0.840104 -5.31384e-06 -81.068 
69.282 71.759 16.502 137.225 -86.9749 -111.103 0 -0 0 7.01288 -11.5441 15.6803 22.2865 -13.0365 7.45746e-06 56.0195 -13.409 1.06861 -0 70.6836 -0 -7.35667 3.01706 -0.193999 -17.026 16.4003 -2.98654e-05 -52.2191 4.46945 5.19912 9.19391e-06 -88.2893 -9.47619e-06 -4.00409 5.67242 -0.198399 -0.189692 3.3869 -21.1668 10.4183 -9.25444 -77.0083 -0 -0 57.5065 -5.44381e-07 -3.86981 0.961217 -0.0649997 1.01572e-07 -8.71426 -1.80365 14.8092 -14.2286 -0 -0 56.6932 -5.22415e-07 5.22713 -8.01319 -0.730703 -4.05368e-06 -81.4103 
68.116 71.761 16.387 136.614 -86.9958 -110.494 0 -0 0 7.71755 -11.3867 15.6088 22.3061 -12.9218 4.20996e-05 55.8732 -12.7949 0.857344 -0 70.7015 -0 -7.44575 2.98864 -0.194498 -17.0145 16.2491 0.000128796 -53.2417 5.13681 5.76877 2.18181e-06 -86.1646 -2.33283e-06 -3.65173 5.76922 -0.184096 -0.428301 3.16423 -20.8295 10.4715 -9.48291 -76.7546 -0 -0 58.7162 6.11276e-07 -3.56234 -0.446298 0.0278 4.28962e-08 -4.994 -1.61543 14.3771 -13.4176 -0 -0 56.1964 -3.73108e-06 5.32509 -6.66348 -0.619702 -1.19634e-06 -81.6234 
66.986 71.772 16.268 135.784 -87.0216 -109.625 0 -0 0 8.40763 -11.1957 15.5032 22.3257 -12.82 0.000125458 55.718 -12.1709 0.677798 -1.05486e-06 70.7316 -7.48688e-07 -7.5228 2.98394 -0.196202 -16.9883 16.0754 -4.7634e-05 -54.2058 5.71356 6.37034 0 -83.9611 0 -3.26084 5.8964 -0.168003 -0.649395 2.91708 -20.4006 10.4759 -9.66336 -76.513 -0 -0 59.8452 4.43259e-07 -3.3607 -1.76772 0.103799 5.34822e-08 -2.18973 -1.46972 13.9129 -12.7995 -0 -0 55.887 -4.04873e-06 5.52496 -5.16203 -0.498594 2.55814e-06 -81.6541 
65.893 71.796 16.143 134.905 -87.0529 -108.664 0 -0 0 9.08591 -10.9713 15.3721 22.345 -12.7193 6.78183e-06 55.5554 -11.5386 0.524521 -1.05733e-06 70.7822 -7.51171e-07 -7.59337 3.00245 -0.1993 -16.9648 15.8876 5.62259e-05 -55.0938 6.20216 7.0047 1.36568e-06 -81.6854 -1.5797e-06 -2.84857 6.04415 -0.150403 -0.863707 2.65218 -19.9051 10.439 -9.78519 -76.2858 -0 -0 60.887 -9.40458e-07 -3.25685 -2.97312 0.169106 2.38143e-08 -0.373207 -1.36073 13.4344 -12.3954 -0 -0 55.7894 -4.52509e-06 5.83402 -3.48706 -0.356094 -4.36044e-06 -81.4195 
